<?xml version="1.0" standalone="no"?>
<!DOCTYPE svg PUBLIC "-//W3C//DTD SVG 20010904//EN"
 "http://www.w3.org/TR/2001/REC-SVG-20010904/DTD/svg10.dtd">
<svg version="1.0" xmlns="http://www.w3.org/2000/svg"
 width="1024.000000pt" height="1024.000000pt" viewBox="0 0 1024.000000 1024.000000"
 preserveAspectRatio="xMidYMid meet">
<metadata>
Created by potrace 1.14, written by Peter Selinger 2001-2017
</metadata>
<g transform="translate(0.000000,1024.000000) scale(0.100000,-0.100000)"
fill="#000000" stroke="none">
<path d="M1548 8340 c-255 -43 -472 -236 -550 -490 l-23 -75 -3 -2580 c-2
-1719 1 -2612 7 -2677 18 -169 77 -293 196 -413 83 -84 161 -133 270 -172 l80
-28 3595 0 3595 0 80 28 c109 39 187 88 270 172 119 120 178 244 196 413 6 65
9 958 7 2677 l-3 2580 -23 75 c-68 220 -237 393 -457 468 l-80 27 -3555 1
c-1955 1 -3576 -2 -3602 -6z m7022 -3215 l0 -2535 -3450 0 -3450 0 0 2535 0
2535 3450 0 3450 0 0 -2535z"/>
<path d="M3860 6960 c-167 -21 -322 -87 -455 -194 -236 -189 -355 -432 -355
-721 0 -289 119 -532 355 -721 167 -135 347 -197 565 -197 269 0 472 91 667
297 238 251 312 575 208 904 -75 235 -313 489 -541 575 -138 53 -308 74 -444
57z"/>
<path d="M6100 6492 c-56 -28 -61 -47 -58 -228 3 -182 8 -195 77 -214 39 -11
1609 -14 1673 -4 21 4 49 18 63 32 25 24 25 27 25 196 0 193 -4 208 -68 226
-24 6 -324 10 -857 10 -761 0 -823 -1 -855 -18z"/>
<path d="M6121 5580 c-18 -4 -43 -18 -55 -29 -19 -20 -21 -33 -24 -184 -3
-182 2 -201 58 -229 32 -17 95 -18 863 -18 885 0 880 0 906 48 7 13 11 88 11
190 0 167 0 170 -25 194 -16 17 -41 28 -71 32 -68 9 -1623 5 -1663 -4z"/>
<path d="M3113 4645 c-359 -65 -654 -319 -734 -632 -18 -73 -20 -106 -17 -311
l3 -229 30 -48 c17 -26 52 -63 79 -82 98 -67 9 -64 1517 -61 l1364 3 57 28
c71 35 141 110 158 170 8 32 11 109 8 268 -4 199 -7 232 -27 294 -45 135 -108
234 -218 342 -170 165 -390 258 -638 270 -110 5 -128 3 -220 -22 -221 -61
-298 -75 -441 -82 -180 -8 -291 6 -498 63 -140 38 -173 44 -256 43 -52 0 -127
-7 -167 -14z"/>
<path d="M6084 4645 c-39 -27 -46 -63 -42 -229 3 -155 3 -156 31 -183 l27 -28
833 -3 c457 -2 847 0 866 3 18 4 44 17 57 30 23 24 24 28 24 195 l0 172 -29
29 -29 29 -859 0 c-737 0 -862 -2 -879 -15z"/>
</g>
</svg>
